<svg width="201" height="48" viewBox="0 0 201 48" fill="none" xmlns="http://www.w3.org/2000/svg">
<path d="M72.704 15.6H67.504L66.512 18H63.856L68.848 6.8H71.408L76.416 18H73.696L72.704 15.6ZM71.888 13.632L70.112 9.344L68.336 13.632H71.888ZM80.138 9.584H82.346V11.504H80.202V18H77.706V11.504H76.378V9.584H77.706V9.2C77.706 8.21867 77.994 7.44 78.57 6.864C79.1567 6.288 79.978 6 81.034 6C81.4073 6 81.7593 6.04267 82.09 6.128C82.4313 6.20267 82.714 6.31467 82.938 6.464L82.282 8.272C81.994 8.06933 81.658 7.968 81.274 7.968C80.5167 7.968 80.138 8.384 80.138 9.216V9.584ZM86.3255 9.584H88.5335V11.504H86.3895V18H83.8935V11.504H82.5655V9.584H83.8935V9.2C83.8935 8.21867 84.1815 7.44 84.7575 6.864C85.3442 6.288 86.1655 6 87.2215 6C87.5948 6 87.9468 6.04267 88.2775 6.128C88.6188 6.20267 88.9015 6.31467 89.1255 6.464L88.4695 8.272C88.1815 8.06933 87.8455 7.968 87.4615 7.968C86.7042 7.968 86.3255 8.384 86.3255 9.216V9.584ZM93.7636 18.128C92.857 18.128 92.041 17.9413 91.3156 17.568C90.601 17.184 90.041 16.656 89.6356 15.984C89.2303 15.312 89.0276 14.5493 89.0276 13.696C89.0276 12.8427 89.2303 12.08 89.6356 11.408C90.041 10.736 90.601 10.2133 91.3156 9.84C92.041 9.456 92.857 9.264 93.7636 9.264C94.6703 9.264 95.481 9.456 96.1956 9.84C96.9103 10.2133 97.4703 10.736 97.8756 11.408C98.281 12.08 98.4836 12.8427 98.4836 13.696C98.4836 14.5493 98.281 15.312 97.8756 15.984C97.4703 16.656 96.9103 17.184 96.1956 17.568C95.481 17.9413 94.6703 18.128 93.7636 18.128ZM93.7636 16.08C94.4036 16.08 94.9263 15.8667 95.3316 15.44C95.7476 15.0027 95.9556 14.4213 95.9556 13.696C95.9556 12.9707 95.7476 12.3947 95.3316 11.968C94.9263 11.5307 94.4036 11.312 93.7636 11.312C93.1236 11.312 92.5956 11.5307 92.1796 11.968C91.7636 12.3947 91.5556 12.9707 91.5556 13.696C91.5556 14.4213 91.7636 15.0027 92.1796 15.44C92.5956 15.8667 93.1236 16.08 93.7636 16.08ZM102.536 10.528C102.835 10.112 103.235 9.79733 103.736 9.584C104.248 9.37067 104.835 9.264 105.496 9.264V11.568C105.219 11.5467 105.032 11.536 104.936 11.536C104.221 11.536 103.661 11.7387 103.256 12.144C102.851 12.5387 102.648 13.136 102.648 13.936V18H100.152V9.392H102.536V10.528ZM115.67 6.128V18H113.286V17.008C112.667 17.7547 111.771 18.128 110.598 18.128C109.787 18.128 109.051 17.9467 108.39 17.584C107.739 17.2213 107.227 16.704 106.854 16.032C106.481 15.36 106.294 14.5813 106.294 13.696C106.294 12.8107 106.481 12.032 106.854 11.36C107.227 10.688 107.739 10.1707 108.39 9.808C109.051 9.44533 109.787 9.264 110.598 9.264C111.697 9.264 112.555 9.61067 113.174 10.304V6.128H115.67ZM111.03 16.08C111.659 16.08 112.182 15.8667 112.598 15.44C113.014 15.0027 113.222 14.4213 113.222 13.696C113.222 12.9707 113.014 12.3947 112.598 11.968C112.182 11.5307 111.659 11.312 111.03 11.312C110.39 11.312 109.862 11.5307 109.446 11.968C109.03 12.3947 108.822 12.9707 108.822 13.696C108.822 14.4213 109.03 15.0027 109.446 15.44C109.862 15.8667 110.39 16.08 111.03 16.08ZM121.452 9.264C122.785 9.264 123.809 9.584 124.524 10.224C125.239 10.8533 125.596 11.808 125.596 13.088V18H123.26V16.928C122.791 17.728 121.916 18.128 120.636 18.128C119.975 18.128 119.399 18.016 118.908 17.792C118.428 17.568 118.06 17.2587 117.804 16.864C117.548 16.4693 117.42 16.0213 117.42 15.52C117.42 14.72 117.719 14.0907 118.316 13.632C118.924 13.1733 119.857 12.944 121.116 12.944H123.1C123.1 12.4 122.935 11.984 122.604 11.696C122.273 11.3973 121.777 11.248 121.116 11.248C120.657 11.248 120.204 11.3227 119.756 11.472C119.319 11.6107 118.945 11.8027 118.636 12.048L117.74 10.304C118.209 9.97333 118.769 9.71733 119.42 9.536C120.081 9.35467 120.759 9.264 121.452 9.264ZM121.26 16.448C121.687 16.448 122.065 16.352 122.396 16.16C122.727 15.9573 122.961 15.664 123.1 15.28V14.4H121.388C120.364 14.4 119.852 14.736 119.852 15.408C119.852 15.728 119.975 15.984 120.22 16.176C120.476 16.3573 120.823 16.448 121.26 16.448ZM132.943 9.264C133.743 9.264 134.468 9.45067 135.119 9.824C135.78 10.1867 136.298 10.704 136.671 11.376C137.044 12.0373 137.231 12.8107 137.231 13.696C137.231 14.5813 137.044 15.36 136.671 16.032C136.298 16.6933 135.78 17.2107 135.119 17.584C134.468 17.9467 133.743 18.128 132.943 18.128C131.759 18.128 130.858 17.7547 130.239 17.008V18H127.855V6.128H130.351V10.304C130.98 9.61067 131.844 9.264 132.943 9.264ZM132.511 16.08C133.151 16.08 133.674 15.8667 134.079 15.44C134.495 15.0027 134.703 14.4213 134.703 13.696C134.703 12.9707 134.495 12.3947 134.079 11.968C133.674 11.5307 133.151 11.312 132.511 11.312C131.871 11.312 131.343 11.5307 130.927 11.968C130.522 12.3947 130.319 12.9707 130.319 13.696C130.319 14.4213 130.522 15.0027 130.927 15.44C131.343 15.8667 131.871 16.08 132.511 16.08ZM138.902 6.128H141.398V18H138.902V6.128ZM152.147 13.728C152.147 13.76 152.131 13.984 152.099 14.4H145.587C145.704 14.9333 145.981 15.3547 146.419 15.664C146.856 15.9733 147.4 16.128 148.051 16.128C148.499 16.128 148.893 16.064 149.235 15.936C149.587 15.7973 149.912 15.584 150.211 15.296L151.539 16.736C150.728 17.664 149.544 18.128 147.987 18.128C147.016 18.128 146.157 17.9413 145.411 17.568C144.664 17.184 144.088 16.656 143.683 15.984C143.277 15.312 143.075 14.5493 143.075 13.696C143.075 12.8533 143.272 12.096 143.667 11.424C144.072 10.7413 144.621 10.2133 145.315 9.84C146.019 9.456 146.803 9.264 147.667 9.264C148.509 9.264 149.272 9.44533 149.955 9.808C150.637 10.1707 151.171 10.6933 151.555 11.376C151.949 12.048 152.147 12.832 152.147 13.728ZM147.683 11.152C147.117 11.152 146.643 11.312 146.259 11.632C145.875 11.952 145.64 12.3893 145.555 12.944H149.795C149.709 12.4 149.475 11.968 149.091 11.648C148.707 11.3173 148.237 11.152 147.683 11.152ZM70.176 30.8C71.168 30.8 72.0267 30.9653 72.752 31.296C73.488 31.6267 74.0533 32.096 74.448 32.704C74.8427 33.312 75.04 34.032 75.04 34.864C75.04 35.6853 74.8427 36.4053 74.448 37.024C74.0533 37.632 73.488 38.1013 72.752 38.432C72.0267 38.752 71.168 38.912 70.176 38.912H67.92V42H65.328V30.8H70.176ZM70.032 36.8C70.8107 36.8 71.4027 36.6347 71.808 36.304C72.2133 35.9627 72.416 35.4827 72.416 34.864C72.416 34.2347 72.2133 33.7547 71.808 33.424C71.4027 33.0827 70.8107 32.912 70.032 32.912H67.92V36.8H70.032ZM79.0985 34.528C79.3972 34.112 79.7972 33.7973 80.2985 33.584C80.8105 33.3707 81.3972 33.264 82.0585 33.264V35.568C81.7812 35.5467 81.5945 35.536 81.4985 35.536C80.7838 35.536 80.2238 35.7387 79.8185 36.144C79.4132 36.5387 79.2105 37.136 79.2105 37.936V42H76.7145V33.392H79.0985V34.528ZM83.5426 33.392H86.0386V42H83.5426V33.392ZM84.7906 32.192C84.332 32.192 83.9586 32.0587 83.6706 31.792C83.3826 31.5253 83.2386 31.1947 83.2386 30.8C83.2386 30.4053 83.3826 30.0747 83.6706 29.808C83.9586 29.5413 84.332 29.408 84.7906 29.408C85.2493 29.408 85.6226 29.536 85.9106 29.792C86.1986 30.048 86.3426 30.368 86.3426 30.752C86.3426 31.168 86.1986 31.5147 85.9106 31.792C85.6226 32.0587 85.2493 32.192 84.7906 32.192ZM92.5151 42.128C91.5978 42.128 90.7711 41.9413 90.0351 41.568C89.3098 41.184 88.7391 40.656 88.3231 39.984C87.9178 39.312 87.7151 38.5493 87.7151 37.696C87.7151 36.8427 87.9178 36.08 88.3231 35.408C88.7391 34.736 89.3098 34.2133 90.0351 33.84C90.7711 33.456 91.5978 33.264 92.5151 33.264C93.4218 33.264 94.2111 33.456 94.8831 33.84C95.5658 34.2133 96.0618 34.752 96.3711 35.456L94.4351 36.496C93.9871 35.7067 93.3418 35.312 92.4991 35.312C91.8485 35.312 91.3098 35.5253 90.8831 35.952C90.4565 36.3787 90.2431 36.96 90.2431 37.696C90.2431 38.432 90.4565 39.0133 90.8831 39.44C91.3098 39.8667 91.8485 40.08 92.4991 40.08C93.3525 40.08 93.9978 39.6853 94.4351 38.896L96.3711 39.952C96.0618 40.6347 95.5658 41.168 94.8831 41.552C94.2111 41.936 93.4218 42.128 92.5151 42.128ZM106.131 37.728C106.131 37.76 106.115 37.984 106.083 38.4H99.5709C99.6882 38.9333 99.9655 39.3547 100.403 39.664C100.84 39.9733 101.384 40.128 102.035 40.128C102.483 40.128 102.878 40.064 103.219 39.936C103.571 39.7973 103.896 39.584 104.195 39.296L105.523 40.736C104.712 41.664 103.528 42.128 101.971 42.128C101 42.128 100.142 41.9413 99.3949 41.568C98.6482 41.184 98.0722 40.656 97.6669 39.984C97.2615 39.312 97.0589 38.5493 97.0589 37.696C97.0589 36.8533 97.2562 36.096 97.6509 35.424C98.0562 34.7413 98.6055 34.2133 99.2989 33.84C100.003 33.456 100.787 33.264 101.651 33.264C102.494 33.264 103.256 33.4453 103.939 33.808C104.622 34.1707 105.155 34.6933 105.539 35.376C105.934 36.048 106.131 36.832 106.131 37.728ZM101.667 35.152C101.102 35.152 100.627 35.312 100.243 35.632C99.8589 35.952 99.6242 36.3893 99.5389 36.944H103.779C103.694 36.4 103.459 35.968 103.075 35.648C102.691 35.3173 102.222 35.152 101.667 35.152Z" fill="#156963"/>
<g clip-path="url(#clip0_0_59)">
<path d="M24 47.9999C37.2341 47.9999 48 37.234 48 23.9999C48.0058 20.8256 47.3782 17.6821 46.1531 14.7536C46.0244 14.4379 45.7357 14.2149 45.3978 14.171C45.0593 14.1265 44.723 14.2668 44.5169 14.5386C44.3114 14.8108 44.2669 15.1726 44.4015 15.4861C45.5297 18.1826 46.1075 21.0772 46.1017 23.9999C46.1017 36.1869 36.187 46.1016 24 46.1016C11.813 46.1016 1.8983 36.1869 1.8983 23.9999C1.8983 11.8129 11.813 1.8982 24 1.8982C26.4767 1.89502 28.9364 2.30922 31.2754 3.12384C31.5959 3.23771 31.9534 3.17098 32.2113 2.94905C32.4693 2.72765 32.589 2.38443 32.5249 2.05021C32.4608 1.716 32.2225 1.44163 31.9004 1.33146C29.3602 0.446928 26.6896 -0.00328333 24 -0.000105363C10.7659 -0.000105363 0 10.7658 0 23.9999C0 37.234 10.7659 47.9999 24 47.9999Z" fill="#156963"/>
<path d="M33.4094 6.17269C33.0387 5.80193 32.4375 5.80193 32.0667 6.17269C31.6965 6.54345 31.6965 7.14462 32.0667 7.51538L36.4836 11.9322C36.8485 12.2972 37.4375 12.3035 37.8104 11.9471L45.5969 4.51009C45.8459 4.2765 45.9502 3.92746 45.8708 3.59589C45.7908 3.26432 45.5392 3.00055 45.2113 2.90574C44.884 2.81093 44.5307 2.89939 44.286 3.1372L37.17 9.93381L33.4094 6.17269Z" fill="#156963"/>
<path d="M24 14.8194C26.2405 14.822 28.0562 16.6377 28.0588 18.8782C28.0588 19.4025 28.4836 19.8273 29.008 19.8273C29.5323 19.8273 29.9571 19.4025 29.9571 18.8782C29.9534 15.956 27.8332 13.4666 24.9492 12.9974V11.1186C24.9492 10.5943 24.5244 10.1695 24 10.1695C23.4756 10.1695 23.0509 10.5943 23.0509 11.1186V12.9974C19.9862 13.4936 17.8162 16.2595 18.0646 19.3543C18.3125 22.4486 20.8957 24.8337 24 24.8347C26.232 24.8347 28.0456 26.6372 28.0583 28.8697C28.0715 31.1017 26.2791 32.9253 24.0472 32.9513C24.0313 32.9502 24.0159 32.9486 24 32.9486C23.9841 32.9486 23.9688 32.9502 23.9529 32.9513C21.7309 32.9232 19.9439 31.1155 19.9412 28.8935C19.9412 28.3692 19.5164 27.9444 18.9921 27.9444C18.4677 27.9444 18.0429 28.3692 18.0429 28.8935C18.0466 31.8157 20.1663 34.3051 23.0509 34.7744V36.8814C23.0509 37.4057 23.4756 37.8305 24 37.8305C24.5244 37.8305 24.9492 37.4057 24.9492 36.8814V34.7744C28.0143 34.2797 30.1854 31.5127 29.937 28.4179C29.6891 25.3231 27.1049 22.9375 24 22.9375C22.5445 22.9454 21.1955 22.1737 20.4656 20.9147C19.7352 19.6552 19.7352 18.1017 20.4656 16.8422C21.1955 15.5832 22.5445 14.8114 24 14.8199V14.8194Z" fill="#156963"/>
</g>
<defs>
<clipPath id="clip0_0_59">
<rect width="48" height="48" fill="white"/>
</clipPath>
</defs>
</svg>
