<svg width="201" height="48" viewBox="0 0 201 48" fill="none" xmlns="http://www.w3.org/2000/svg">
<path d="M72.896 12.224H75.264V16.768C74.656 17.2267 73.952 17.5787 73.152 17.824C72.352 18.0693 71.5467 18.192 70.736 18.192C69.5733 18.192 68.528 17.9467 67.6 17.456C66.672 16.9547 65.9413 16.2667 65.408 15.392C64.8853 14.5067 64.624 13.5093 64.624 12.4C64.624 11.2907 64.8853 10.2987 65.408 9.424C65.9413 8.53867 66.6773 7.85067 67.616 7.36C68.5547 6.85867 69.6107 6.608 70.784 6.608C71.7653 6.608 72.656 6.77333 73.456 7.104C74.256 7.43467 74.928 7.91467 75.472 8.544L73.808 10.08C73.008 9.23733 72.0427 8.816 70.912 8.816C70.1973 8.816 69.5627 8.96533 69.008 9.264C68.4533 9.56267 68.0213 9.984 67.712 10.528C67.4027 11.072 67.248 11.696 67.248 12.4C67.248 13.0933 67.4027 13.712 67.712 14.256C68.0213 14.8 68.448 15.2267 68.992 15.536C69.5467 15.8347 70.176 15.984 70.88 15.984C71.6267 15.984 72.2987 15.824 72.896 15.504V12.224ZM79.8798 10.528C80.1784 10.112 80.5784 9.79733 81.0798 9.584C81.5918 9.37067 82.1784 9.264 82.8398 9.264V11.568C82.5624 11.5467 82.3758 11.536 82.2798 11.536C81.5651 11.536 81.0051 11.7387 80.5998 12.144C80.1944 12.5387 79.9918 13.136 79.9918 13.936V18H77.4958V9.392H79.8798V10.528ZM92.6778 13.728C92.6778 13.76 92.6618 13.984 92.6298 14.4H86.1178C86.2351 14.9333 86.5124 15.3547 86.9498 15.664C87.3871 15.9733 87.9311 16.128 88.5818 16.128C89.0298 16.128 89.4244 16.064 89.7658 15.936C90.1178 15.7973 90.4431 15.584 90.7418 15.296L92.0698 16.736C91.2591 17.664 90.0751 18.128 88.5178 18.128C87.5471 18.128 86.6884 17.9413 85.9418 17.568C85.1951 17.184 84.6191 16.656 84.2138 15.984C83.8084 15.312 83.6058 14.5493 83.6058 13.696C83.6058 12.8533 83.8031 12.096 84.1978 11.424C84.6031 10.7413 85.1524 10.2133 85.8458 9.84C86.5498 9.456 87.3338 9.264 88.1978 9.264C89.0404 9.264 89.8031 9.44533 90.4858 9.808C91.1684 10.1707 91.7018 10.6933 92.0858 11.376C92.4804 12.048 92.6778 12.832 92.6778 13.728ZM88.2138 11.152C87.6484 11.152 87.1738 11.312 86.7898 11.632C86.4058 11.952 86.1711 12.3893 86.0858 12.944H90.3258C90.2404 12.4 90.0058 11.968 89.6218 11.648C89.2378 11.3173 88.7684 11.152 88.2138 11.152ZM97.5771 9.264C98.9105 9.264 99.9345 9.584 100.649 10.224C101.364 10.8533 101.721 11.808 101.721 13.088V18H99.3851V16.928C98.9158 17.728 98.0411 18.128 96.7611 18.128C96.0998 18.128 95.5238 18.016 95.0331 17.792C94.5531 17.568 94.1851 17.2587 93.9291 16.864C93.6731 16.4693 93.5451 16.0213 93.5451 15.52C93.5451 14.72 93.8438 14.0907 94.4411 13.632C95.0491 13.1733 95.9825 12.944 97.2411 12.944H99.2251C99.2251 12.4 99.0598 11.984 98.7291 11.696C98.3985 11.3973 97.9025 11.248 97.2411 11.248C96.7825 11.248 96.3291 11.3227 95.8811 11.472C95.4438 11.6107 95.0705 11.8027 94.7611 12.048L93.8651 10.304C94.3345 9.97333 94.8945 9.71733 95.5451 9.536C96.2065 9.35467 96.8838 9.264 97.5771 9.264ZM97.3851 16.448C97.8118 16.448 98.1905 16.352 98.5211 16.16C98.8518 15.9573 99.0865 15.664 99.2251 15.28V14.4H97.5131C96.4891 14.4 95.9771 14.736 95.9771 15.408C95.9771 15.728 96.0998 15.984 96.3451 16.176C96.6011 16.3573 96.9478 16.448 97.3851 16.448ZM109.532 17.584C109.287 17.7653 108.983 17.904 108.62 18C108.268 18.0853 107.895 18.128 107.5 18.128C106.476 18.128 105.681 17.8667 105.116 17.344C104.561 16.8213 104.284 16.0533 104.284 15.04V11.504H102.956V9.584H104.284V7.488H106.78V9.584H108.924V11.504H106.78V15.008C106.78 15.3707 106.871 15.6533 107.052 15.856C107.244 16.048 107.511 16.144 107.852 16.144C108.247 16.144 108.583 16.0373 108.86 15.824L109.532 17.584ZM121.001 18.192C119.859 18.192 118.825 17.9467 117.897 17.456C116.979 16.9547 116.254 16.2667 115.721 15.392C115.198 14.5067 114.937 13.5093 114.937 12.4C114.937 11.2907 115.198 10.2987 115.721 9.424C116.254 8.53867 116.979 7.85067 117.897 7.36C118.825 6.85867 119.865 6.608 121.017 6.608C121.987 6.608 122.862 6.77867 123.641 7.12C124.43 7.46133 125.091 7.952 125.625 8.592L123.961 10.128C123.203 9.25333 122.265 8.816 121.145 8.816C120.451 8.816 119.833 8.97067 119.289 9.28C118.745 9.57867 118.318 10 118.009 10.544C117.71 11.088 117.561 11.7067 117.561 12.4C117.561 13.0933 117.71 13.712 118.009 14.256C118.318 14.8 118.745 15.2267 119.289 15.536C119.833 15.8347 120.451 15.984 121.145 15.984C122.265 15.984 123.203 15.5413 123.961 14.656L125.625 16.192C125.091 16.8427 124.43 17.3387 123.641 17.68C122.851 18.0213 121.971 18.192 121.001 18.192ZM135.652 9.392V18H133.284V16.976C132.953 17.3493 132.559 17.6373 132.1 17.84C131.641 18.032 131.145 18.128 130.612 18.128C129.481 18.128 128.585 17.8027 127.924 17.152C127.263 16.5013 126.932 15.536 126.932 14.256V9.392H129.428V13.888C129.428 15.2747 130.009 15.968 131.172 15.968C131.769 15.968 132.249 15.776 132.612 15.392C132.975 14.9973 133.156 14.416 133.156 13.648V9.392H135.652ZM140.861 18.128C140.146 18.128 139.447 18.0427 138.765 17.872C138.082 17.6907 137.538 17.4667 137.133 17.2L137.965 15.408C138.349 15.6533 138.813 15.856 139.357 16.016C139.901 16.1653 140.434 16.24 140.957 16.24C142.013 16.24 142.541 15.9787 142.541 15.456C142.541 15.2107 142.397 15.0347 142.109 14.928C141.821 14.8213 141.378 14.7307 140.781 14.656C140.077 14.5493 139.495 14.4267 139.037 14.288C138.578 14.1493 138.178 13.904 137.837 13.552C137.506 13.2 137.34 12.6987 137.34 12.048C137.34 11.504 137.495 11.024 137.805 10.608C138.125 10.1813 138.583 9.85067 139.181 9.616C139.789 9.38133 140.503 9.264 141.325 9.264C141.933 9.264 142.535 9.33333 143.133 9.472C143.741 9.6 144.242 9.78133 144.637 10.016L143.805 11.792C143.047 11.3653 142.221 11.152 141.325 11.152C140.791 11.152 140.391 11.2267 140.125 11.376C139.858 11.5253 139.725 11.7173 139.725 11.952C139.725 12.2187 139.869 12.4053 140.157 12.512C140.445 12.6187 140.903 12.72 141.533 12.816C142.237 12.9333 142.813 13.0613 143.261 13.2C143.709 13.328 144.098 13.568 144.429 13.92C144.759 14.272 144.925 14.7627 144.925 15.392C144.925 15.9253 144.765 16.4 144.445 16.816C144.125 17.232 143.655 17.5573 143.037 17.792C142.429 18.016 141.703 18.128 140.861 18.128ZM152.017 17.584C151.771 17.7653 151.467 17.904 151.105 18C150.753 18.0853 150.379 18.128 149.985 18.128C148.961 18.128 148.166 17.8667 147.601 17.344C147.046 16.8213 146.769 16.0533 146.769 15.04V11.504H145.441V9.584H146.769V7.488H149.265V9.584H151.409V11.504H149.265V15.008C149.265 15.3707 149.355 15.6533 149.536 15.856C149.729 16.048 149.995 16.144 150.337 16.144C150.731 16.144 151.067 16.0373 151.345 15.824L152.017 17.584ZM157.248 18.128C156.341 18.128 155.525 17.9413 154.8 17.568C154.085 17.184 153.525 16.656 153.12 15.984C152.715 15.312 152.512 14.5493 152.512 13.696C152.512 12.8427 152.715 12.08 153.12 11.408C153.525 10.736 154.085 10.2133 154.8 9.84C155.525 9.456 156.341 9.264 157.248 9.264C158.155 9.264 158.965 9.456 159.68 9.84C160.395 10.2133 160.955 10.736 161.36 11.408C161.765 12.08 161.968 12.8427 161.968 13.696C161.968 14.5493 161.765 15.312 161.36 15.984C160.955 16.656 160.395 17.184 159.68 17.568C158.965 17.9413 158.155 18.128 157.248 18.128ZM157.248 16.08C157.888 16.08 158.411 15.8667 158.816 15.44C159.232 15.0027 159.44 14.4213 159.44 13.696C159.44 12.9707 159.232 12.3947 158.816 11.968C158.411 11.5307 157.888 11.312 157.248 11.312C156.608 11.312 156.08 11.5307 155.664 11.968C155.248 12.3947 155.04 12.9707 155.04 13.696C155.04 14.4213 155.248 15.0027 155.664 15.44C156.08 15.8667 156.608 16.08 157.248 16.08ZM174.66 9.264C175.738 9.264 176.591 9.584 177.22 10.224C177.86 10.8533 178.18 11.8027 178.18 13.072V18H175.684V13.456C175.684 12.7733 175.54 12.2667 175.252 11.936C174.975 11.5947 174.575 11.424 174.052 11.424C173.466 11.424 173.002 11.616 172.66 12C172.319 12.3733 172.148 12.9333 172.148 13.68V18H169.652V13.456C169.652 12.1013 169.108 11.424 168.02 11.424C167.444 11.424 166.986 11.616 166.644 12C166.303 12.3733 166.132 12.9333 166.132 13.68V18H163.636V9.392H166.02V10.384C166.34 10.0213 166.73 9.744 167.188 9.552C167.658 9.36 168.17 9.264 168.724 9.264C169.332 9.264 169.882 9.38667 170.372 9.632C170.863 9.86667 171.258 10.2133 171.556 10.672C171.908 10.224 172.351 9.87733 172.884 9.632C173.428 9.38667 174.02 9.264 174.66 9.264ZM188.943 13.728C188.943 13.76 188.927 13.984 188.895 14.4H182.383C182.501 14.9333 182.778 15.3547 183.215 15.664C183.653 15.9733 184.197 16.128 184.847 16.128C185.295 16.128 185.69 16.064 186.031 15.936C186.383 15.7973 186.709 15.584 187.007 15.296L188.335 16.736C187.525 17.664 186.341 18.128 184.783 18.128C183.813 18.128 182.954 17.9413 182.207 17.568C181.461 17.184 180.885 16.656 180.479 15.984C180.074 15.312 179.871 14.5493 179.871 13.696C179.871 12.8533 180.069 12.096 180.463 11.424C180.869 10.7413 181.418 10.2133 182.111 9.84C182.815 9.456 183.599 9.264 184.463 9.264C185.306 9.264 186.069 9.44533 186.751 9.808C187.434 10.1707 187.967 10.6933 188.351 11.376C188.746 12.048 188.943 12.832 188.943 13.728ZM184.479 11.152C183.914 11.152 183.439 11.312 183.055 11.632C182.671 11.952 182.437 12.3893 182.351 12.944H186.591C186.506 12.4 186.271 11.968 185.887 11.648C185.503 11.3173 185.034 11.152 184.479 11.152ZM192.989 10.528C193.288 10.112 193.688 9.79733 194.189 9.584C194.701 9.37067 195.288 9.264 195.949 9.264V11.568C195.672 11.5467 195.485 11.536 195.389 11.536C194.674 11.536 194.114 11.7387 193.709 12.144C193.304 12.5387 193.101 13.136 193.101 13.936V18H190.605V9.392H192.989V10.528ZM69.008 42.192C68.1227 42.192 67.264 42.0747 66.432 41.84C65.6107 41.5947 64.9493 41.28 64.448 40.896L65.328 38.944C65.808 39.296 66.3787 39.5787 67.04 39.792C67.7013 40.0053 68.3627 40.112 69.024 40.112C69.76 40.112 70.304 40.0053 70.656 39.792C71.008 39.568 71.184 39.2747 71.184 38.912C71.184 38.6453 71.0773 38.4267 70.864 38.256C70.6613 38.0747 70.3947 37.9307 70.064 37.824C69.744 37.7173 69.3067 37.6 68.752 37.472C67.8987 37.2693 67.2 37.0667 66.656 36.864C66.112 36.6613 65.6427 36.336 65.248 35.888C64.864 35.44 64.672 34.8427 64.672 34.096C64.672 33.4453 64.848 32.8587 65.2 32.336C65.552 31.8027 66.08 31.3813 66.784 31.072C67.4987 30.7627 68.368 30.608 69.392 30.608C70.1067 30.608 70.8053 30.6933 71.488 30.864C72.1707 31.0347 72.768 31.28 73.28 31.6L72.48 33.568C71.4453 32.9813 70.4107 32.688 69.376 32.688C68.6507 32.688 68.112 32.8053 67.76 33.04C67.4187 33.2747 67.248 33.584 67.248 33.968C67.248 34.352 67.4453 34.64 67.84 34.832C68.2453 35.0133 68.8587 35.1947 69.68 35.376C70.5333 35.5787 71.232 35.7813 71.776 35.984C72.32 36.1867 72.784 36.5067 73.168 36.944C73.5627 37.3813 73.76 37.9733 73.76 38.72C73.76 39.36 73.5787 39.9467 73.216 40.48C72.864 41.0027 72.3307 41.4187 71.616 41.728C70.9013 42.0373 70.032 42.192 69.008 42.192ZM83.7871 37.728C83.7871 37.76 83.7711 37.984 83.7391 38.4H77.2271C77.3445 38.9333 77.6218 39.3547 78.0591 39.664C78.4965 39.9733 79.0405 40.128 79.6911 40.128C80.1391 40.128 80.5338 40.064 80.8751 39.936C81.2271 39.7973 81.5525 39.584 81.8511 39.296L83.1791 40.736C82.3685 41.664 81.1845 42.128 79.6271 42.128C78.6565 42.128 77.7978 41.9413 77.0511 41.568C76.3045 41.184 75.7285 40.656 75.3231 39.984C74.9178 39.312 74.7151 38.5493 74.7151 37.696C74.7151 36.8533 74.9125 36.096 75.3071 35.424C75.7125 34.7413 76.2618 34.2133 76.9551 33.84C77.6591 33.456 78.4431 33.264 79.3071 33.264C80.1498 33.264 80.9125 33.4453 81.5951 33.808C82.2778 34.1707 82.8111 34.6933 83.1951 35.376C83.5898 36.048 83.7871 36.832 83.7871 37.728ZM79.3231 35.152C78.7578 35.152 78.2831 35.312 77.8991 35.632C77.5151 35.952 77.2805 36.3893 77.1951 36.944H81.4351C81.3498 36.4 81.1151 35.968 80.7311 35.648C80.3471 35.3173 79.8778 35.152 79.3231 35.152ZM87.8329 34.528C88.1315 34.112 88.5315 33.7973 89.0329 33.584C89.5449 33.3707 90.1315 33.264 90.7929 33.264V35.568C90.5155 35.5467 90.3289 35.536 90.2329 35.536C89.5182 35.536 88.9582 35.7387 88.5529 36.144C88.1475 36.5387 87.9449 37.136 87.9449 37.936V42H85.4489V33.392H87.8329V34.528ZM101.118 33.392L97.4859 42H94.9099L91.2939 33.392H93.8699L96.2539 39.248L98.7179 33.392H101.118ZM102.136 33.392H104.632V42H102.136V33.392ZM103.384 32.192C102.926 32.192 102.552 32.0587 102.264 31.792C101.976 31.5253 101.832 31.1947 101.832 30.8C101.832 30.4053 101.976 30.0747 102.264 29.808C102.552 29.5413 102.926 29.408 103.384 29.408C103.843 29.408 104.216 29.536 104.504 29.792C104.792 30.048 104.936 30.368 104.936 30.752C104.936 31.168 104.792 31.5147 104.504 31.792C104.216 32.0587 103.843 32.192 103.384 32.192ZM111.109 42.128C110.192 42.128 109.365 41.9413 108.629 41.568C107.904 41.184 107.333 40.656 106.917 39.984C106.512 39.312 106.309 38.5493 106.309 37.696C106.309 36.8427 106.512 36.08 106.917 35.408C107.333 34.736 107.904 34.2133 108.629 33.84C109.365 33.456 110.192 33.264 111.109 33.264C112.016 33.264 112.805 33.456 113.477 33.84C114.16 34.2133 114.656 34.752 114.965 35.456L113.029 36.496C112.581 35.7067 111.936 35.312 111.093 35.312C110.442 35.312 109.904 35.5253 109.477 35.952C109.05 36.3787 108.837 36.96 108.837 37.696C108.837 38.432 109.05 39.0133 109.477 39.44C109.904 39.8667 110.442 40.08 111.093 40.08C111.946 40.08 112.592 39.6853 113.029 38.896L114.965 39.952C114.656 40.6347 114.16 41.168 113.477 41.552C112.805 41.936 112.016 42.128 111.109 42.128ZM124.725 37.728C124.725 37.76 124.709 37.984 124.677 38.4H118.165C118.282 38.9333 118.559 39.3547 118.997 39.664C119.434 39.9733 119.978 40.128 120.629 40.128C121.077 40.128 121.471 40.064 121.813 39.936C122.165 39.7973 122.49 39.584 122.789 39.296L124.117 40.736C123.306 41.664 122.122 42.128 120.565 42.128C119.594 42.128 118.735 41.9413 117.989 41.568C117.242 41.184 116.666 40.656 116.261 39.984C115.855 39.312 115.653 38.5493 115.653 37.696C115.653 36.8533 115.85 36.096 116.245 35.424C116.65 34.7413 117.199 34.2133 117.893 33.84C118.597 33.456 119.381 33.264 120.245 33.264C121.087 33.264 121.85 33.4453 122.533 33.808C123.215 34.1707 123.749 34.6933 124.133 35.376C124.527 36.048 124.725 36.832 124.725 37.728ZM120.261 35.152C119.695 35.152 119.221 35.312 118.837 35.632C118.453 35.952 118.218 36.3893 118.133 36.944H122.373C122.287 36.4 122.053 35.968 121.669 35.648C121.285 35.3173 120.815 35.152 120.261 35.152Z" fill="#156963"/>
<path d="M24 0C12.3689 0 2.90625 9.46266 2.90625 21.0938C2.90625 22.3827 2.90625 32.3539 2.90625 32.5312C2.90625 34.8575 4.79878 36.75 7.125 36.75H8.77313C9.35363 38.3867 10.9167 39.5625 12.75 39.5625C15.0762 39.5625 16.9688 37.67 16.9688 35.3438V23.9062C16.9688 21.58 15.0762 19.6875 12.75 19.6875C10.9167 19.6875 9.35363 20.8633 8.77313 22.5H7.125C6.63197 22.5 6.15891 22.5858 5.71875 22.7419V21.0938C5.71875 11.0135 13.9197 2.8125 24 2.8125C34.0803 2.8125 42.2812 11.0135 42.2812 21.0938V22.7419C41.8411 22.5858 41.368 22.5 40.875 22.5H39.2269C38.6464 20.8633 37.0833 19.6875 35.25 19.6875C32.9238 19.6875 31.0312 21.58 31.0312 23.9062V35.3438C31.0312 37.67 32.9238 39.5625 35.25 39.5625C35.6757 39.5625 36.0867 39.4986 36.4745 39.3807C35.9484 41.1115 34.338 42.375 32.4375 42.375H27.9769C27.3964 40.7383 25.8333 39.5625 24 39.5625C21.6738 39.5625 19.7812 41.455 19.7812 43.7812C19.7812 46.1075 21.6738 48 24 48C25.8333 48 27.3964 46.8242 27.9769 45.1875H32.4375C36.3145 45.1875 39.4688 42.0333 39.4688 38.1562V36.75H40.875C43.2012 36.75 45.0938 34.8575 45.0938 32.5312C45.0938 32.3565 45.0938 22.3817 45.0938 21.0938C45.0938 9.46266 35.6311 0 24 0ZM11.3438 23.9062C11.3438 23.1308 11.9746 22.5 12.75 22.5C13.5254 22.5 14.1562 23.1308 14.1562 23.9062V35.3438C14.1562 36.1192 13.5254 36.75 12.75 36.75C11.9746 36.75 11.3438 36.1192 11.3438 35.3438V23.9062ZM7.125 25.3125H8.53125V33.9375H7.125C6.34959 33.9375 5.71875 33.3067 5.71875 32.5312V26.7188C5.71875 25.9433 6.34959 25.3125 7.125 25.3125ZM24 45.1875C23.2246 45.1875 22.5938 44.5567 22.5938 43.7812C22.5938 43.0058 23.2246 42.375 24 42.375C24.7754 42.375 25.4062 43.0058 25.4062 43.7812C25.4062 44.5567 24.7754 45.1875 24 45.1875ZM36.6562 35.3438C36.6562 36.1192 36.0254 36.75 35.25 36.75C34.4746 36.75 33.8438 36.1192 33.8438 35.3438V23.9062C33.8438 23.1308 34.4746 22.5 35.25 22.5C36.0254 22.5 36.6562 23.1308 36.6562 23.9062V35.3438ZM42.2812 32.5312C42.2812 33.3067 41.6504 33.9375 40.875 33.9375H39.4688V25.3125H40.875C41.6504 25.3125 42.2812 25.9433 42.2812 26.7188V32.5312Z" fill="#156963"/>
</svg>
