<svg width="201" height="48" viewBox="0 0 201 48" fill="none" xmlns="http://www.w3.org/2000/svg">
<path d="M70.752 18.192C69.5893 18.192 68.5387 17.9413 67.6 17.44C66.672 16.9387 65.9413 16.2507 65.408 15.376C64.8853 14.4907 64.624 13.4987 64.624 12.4C64.624 11.3013 64.8853 10.3147 65.408 9.44C65.9413 8.55467 66.672 7.86133 67.6 7.36C68.5387 6.85867 69.5893 6.608 70.752 6.608C71.9147 6.608 72.96 6.85867 73.888 7.36C74.816 7.86133 75.5467 8.55467 76.08 9.44C76.6133 10.3147 76.88 11.3013 76.88 12.4C76.88 13.4987 76.6133 14.4907 76.08 15.376C75.5467 16.2507 74.816 16.9387 73.888 17.44C72.96 17.9413 71.9147 18.192 70.752 18.192ZM70.752 15.984C71.4133 15.984 72.0107 15.8347 72.544 15.536C73.0773 15.2267 73.4933 14.8 73.792 14.256C74.1013 13.712 74.256 13.0933 74.256 12.4C74.256 11.7067 74.1013 11.088 73.792 10.544C73.4933 10 73.0773 9.57867 72.544 9.28C72.0107 8.97067 71.4133 8.816 70.752 8.816C70.0907 8.816 69.4933 8.97067 68.96 9.28C68.4267 9.57867 68.0053 10 67.696 10.544C67.3973 11.088 67.248 11.7067 67.248 12.4C67.248 13.0933 67.3973 13.712 67.696 14.256C68.0053 14.8 68.4267 15.2267 68.96 15.536C69.4933 15.8347 70.0907 15.984 70.752 15.984ZM81.036 10.528C81.3347 10.112 81.7347 9.79733 82.236 9.584C82.748 9.37067 83.3347 9.264 83.996 9.264V11.568C83.7187 11.5467 83.532 11.536 83.436 11.536C82.7213 11.536 82.1613 11.7387 81.756 12.144C81.3507 12.5387 81.148 13.136 81.148 13.936V18H78.652V9.392H81.036V10.528ZM85.4801 9.392H87.9761V18H85.4801V9.392ZM86.7281 8.192C86.2695 8.192 85.8961 8.05867 85.6081 7.792C85.3201 7.52533 85.1761 7.19467 85.1761 6.8C85.1761 6.40533 85.3201 6.07467 85.6081 5.808C85.8961 5.54133 86.2695 5.408 86.7281 5.408C87.1868 5.408 87.5601 5.536 87.8481 5.792C88.1361 6.048 88.2801 6.368 88.2801 6.752C88.2801 7.168 88.1361 7.51467 87.8481 7.792C87.5601 8.05867 87.1868 8.192 86.7281 8.192ZM99.1726 9.392V16.56C99.1726 18.1387 98.762 19.312 97.9406 20.08C97.1193 20.848 95.9193 21.232 94.3406 21.232C93.5086 21.232 92.7193 21.1307 91.9726 20.928C91.226 20.7253 90.6073 20.432 90.1166 20.048L91.1086 18.256C91.4713 18.5547 91.93 18.7893 92.4846 18.96C93.0393 19.1413 93.594 19.232 94.1486 19.232C95.0126 19.232 95.6473 19.0347 96.0526 18.64C96.4686 18.256 96.6766 17.6693 96.6766 16.88V16.512C96.026 17.2267 95.1193 17.584 93.9566 17.584C93.1673 17.584 92.442 17.4133 91.7806 17.072C91.13 16.72 90.6126 16.2293 90.2286 15.6C89.8446 14.9707 89.6526 14.2453 89.6526 13.424C89.6526 12.6027 89.8446 11.8773 90.2286 11.248C90.6126 10.6187 91.13 10.1333 91.7806 9.792C92.442 9.44 93.1673 9.264 93.9566 9.264C95.2046 9.264 96.154 9.67467 96.8046 10.496V9.392H99.1726ZM94.4526 15.536C95.114 15.536 95.6526 15.344 96.0686 14.96C96.4953 14.5653 96.7086 14.0533 96.7086 13.424C96.7086 12.7947 96.4953 12.288 96.0686 11.904C95.6526 11.5093 95.114 11.312 94.4526 11.312C93.7913 11.312 93.2473 11.5093 92.8206 11.904C92.394 12.288 92.1806 12.7947 92.1806 13.424C92.1806 14.0533 92.394 14.5653 92.8206 14.96C93.2473 15.344 93.7913 15.536 94.4526 15.536ZM101.496 9.392H103.992V18H101.496V9.392ZM102.744 8.192C102.285 8.192 101.912 8.05867 101.624 7.792C101.336 7.52533 101.192 7.19467 101.192 6.8C101.192 6.40533 101.336 6.07467 101.624 5.808C101.912 5.54133 102.285 5.408 102.744 5.408C103.202 5.408 103.576 5.536 103.864 5.792C104.152 6.048 104.296 6.368 104.296 6.752C104.296 7.168 104.152 7.51467 103.864 7.792C103.576 8.05867 103.202 8.192 102.744 8.192ZM111.54 9.264C112.607 9.264 113.466 9.584 114.116 10.224C114.778 10.864 115.108 11.8133 115.108 13.072V18H112.612V13.456C112.612 12.7733 112.463 12.2667 112.164 11.936C111.866 11.5947 111.434 11.424 110.868 11.424C110.239 11.424 109.738 11.6213 109.364 12.016C108.991 12.4 108.804 12.976 108.804 13.744V18H106.308V9.392H108.692V10.4C109.023 10.0373 109.434 9.76 109.924 9.568C110.415 9.36533 110.954 9.264 111.54 9.264ZM120.843 9.264C122.176 9.264 123.2 9.584 123.915 10.224C124.629 10.8533 124.987 11.808 124.987 13.088V18H122.651V16.928C122.181 17.728 121.307 18.128 120.027 18.128C119.365 18.128 118.789 18.016 118.299 17.792C117.819 17.568 117.451 17.2587 117.195 16.864C116.939 16.4693 116.811 16.0213 116.811 15.52C116.811 14.72 117.109 14.0907 117.707 13.632C118.315 13.1733 119.248 12.944 120.507 12.944H122.491C122.491 12.4 122.325 11.984 121.995 11.696C121.664 11.3973 121.168 11.248 120.507 11.248C120.048 11.248 119.595 11.3227 119.147 11.472C118.709 11.6107 118.336 11.8027 118.027 12.048L117.131 10.304C117.6 9.97333 118.16 9.71733 118.811 9.536C119.472 9.35467 120.149 9.264 120.843 9.264ZM120.651 16.448C121.077 16.448 121.456 16.352 121.787 16.16C122.117 15.9573 122.352 15.664 122.491 15.28V14.4H120.779C119.755 14.4 119.243 14.736 119.243 15.408C119.243 15.728 119.365 15.984 119.611 16.176C119.867 16.3573 120.213 16.448 120.651 16.448ZM127.246 6.128H129.742V18H127.246V6.128ZM70.176 30.8C71.168 30.8 72.0267 30.9653 72.752 31.296C73.488 31.6267 74.0533 32.096 74.448 32.704C74.8427 33.312 75.04 34.032 75.04 34.864C75.04 35.6853 74.8427 36.4053 74.448 37.024C74.0533 37.632 73.488 38.1013 72.752 38.432C72.0267 38.752 71.168 38.912 70.176 38.912H67.92V42H65.328V30.8H70.176ZM70.032 36.8C70.8107 36.8 71.4027 36.6347 71.808 36.304C72.2133 35.9627 72.416 35.4827 72.416 34.864C72.416 34.2347 72.2133 33.7547 71.808 33.424C71.4027 33.0827 70.8107 32.912 70.032 32.912H67.92V36.8H70.032ZM76.8708 30.128H79.3668V42H76.8708V30.128ZM85.1553 33.264C86.4886 33.264 87.5126 33.584 88.2273 34.224C88.9419 34.8533 89.2993 35.808 89.2993 37.088V42H86.9633V40.928C86.4939 41.728 85.6193 42.128 84.3393 42.128C83.6779 42.128 83.1019 42.016 82.6113 41.792C82.1313 41.568 81.7633 41.2587 81.5073 40.864C81.2513 40.4693 81.1233 40.0213 81.1233 39.52C81.1233 38.72 81.4219 38.0907 82.0193 37.632C82.6273 37.1733 83.5606 36.944 84.8193 36.944H86.8033C86.8033 36.4 86.6379 35.984 86.3073 35.696C85.9766 35.3973 85.4806 35.248 84.8193 35.248C84.3606 35.248 83.9073 35.3227 83.4593 35.472C83.0219 35.6107 82.6486 35.8027 82.3393 36.048L81.4433 34.304C81.9126 33.9733 82.4726 33.7173 83.1233 33.536C83.7846 33.3547 84.4619 33.264 85.1553 33.264ZM84.9633 40.448C85.3899 40.448 85.7686 40.352 86.0993 40.16C86.4299 39.9573 86.6646 39.664 86.8033 39.28V38.4H85.0913C84.0673 38.4 83.5553 38.736 83.5553 39.408C83.5553 39.728 83.6779 39.984 83.9233 40.176C84.1793 40.3573 84.5259 40.448 84.9633 40.448ZM96.7903 33.264C97.8569 33.264 98.7156 33.584 99.3663 34.224C100.028 34.864 100.358 35.8133 100.358 37.072V42H97.8623V37.456C97.8623 36.7733 97.7129 36.2667 97.4143 35.936C97.1156 35.5947 96.6836 35.424 96.1183 35.424C95.4889 35.424 94.9876 35.6213 94.6143 36.016C94.2409 36.4 94.0543 36.976 94.0543 37.744V42H91.5583V33.392H93.9423V34.4C94.2729 34.0373 94.6836 33.76 95.1743 33.568C95.6649 33.3653 96.2036 33.264 96.7903 33.264ZM108.173 41.584C107.927 41.7653 107.623 41.904 107.261 42C106.909 42.0853 106.535 42.128 106.141 42.128C105.117 42.128 104.322 41.8667 103.757 41.344C103.202 40.8213 102.925 40.0533 102.925 39.04V35.504H101.597V33.584H102.925V31.488H105.421V33.584H107.565V35.504H105.421V39.008C105.421 39.3707 105.511 39.6533 105.693 39.856C105.885 40.048 106.151 40.144 106.493 40.144C106.887 40.144 107.223 40.0373 107.501 39.824L108.173 41.584ZM112.47 42.128C111.755 42.128 111.057 42.0427 110.374 41.872C109.691 41.6907 109.147 41.4667 108.742 41.2L109.574 39.408C109.958 39.6533 110.422 39.856 110.966 40.016C111.51 40.1653 112.043 40.24 112.566 40.24C113.622 40.24 114.15 39.9787 114.15 39.456C114.15 39.2107 114.006 39.0347 113.718 38.928C113.43 38.8213 112.987 38.7307 112.39 38.656C111.686 38.5493 111.105 38.4267 110.646 38.288C110.187 38.1493 109.787 37.904 109.446 37.552C109.115 37.2 108.95 36.6987 108.95 36.048C108.95 35.504 109.105 35.024 109.414 34.608C109.734 34.1813 110.193 33.8507 110.79 33.616C111.398 33.3813 112.113 33.264 112.934 33.264C113.542 33.264 114.145 33.3333 114.742 33.472C115.35 33.6 115.851 33.7813 116.246 34.016L115.414 35.792C114.657 35.3653 113.83 35.152 112.934 35.152C112.401 35.152 112.001 35.2267 111.734 35.376C111.467 35.5253 111.334 35.7173 111.334 35.952C111.334 36.2187 111.478 36.4053 111.766 36.512C112.054 36.6187 112.513 36.72 113.142 36.816C113.846 36.9333 114.422 37.0613 114.87 37.2C115.318 37.328 115.707 37.568 116.038 37.92C116.369 38.272 116.534 38.7627 116.534 39.392C116.534 39.9253 116.374 40.4 116.054 40.816C115.734 41.232 115.265 41.5573 114.646 41.792C114.038 42.016 113.313 42.128 112.47 42.128Z" fill="#156963"/>
<g clip-path="url(#clip0_0_43)">
<path d="M19.2976 6.88197C15.1042 2.69072 6.89824 2.20471 1.0898 2.20471C0.488251 2.20471 0 2.69286 0 3.29441C0 9.10285 0.483858 17.3088 4.67726 21.5023C6.44708 23.2721 9.16061 24.0633 11.8501 24.0633C14.7729 24.0633 17.6695 23.1283 19.2976 21.5002C22.4209 18.3769 22.9942 10.5763 19.2976 6.88197ZM17.7567 19.9614C15.4246 22.2912 8.94922 22.6901 6.22047 19.9614C2.83562 16.5766 2.24928 9.70011 2.18604 4.39076C7.4954 4.454 14.3719 5.04022 17.7566 8.42508C20.4855 11.1538 20.0866 17.6315 17.7567 19.9614Z" fill="#156963"/>
<path d="M46.9104 6.51575C41.102 6.51575 32.896 6.9996 28.7025 11.193C25.0061 14.8873 25.5792 22.6879 28.7025 25.8112C30.3306 27.4372 33.2251 28.3722 36.1479 28.3722C38.8374 28.3722 41.5488 27.5832 43.3229 25.8135C47.5141 21.6201 48.0001 13.4141 48.0001 7.60555C48.0002 7.004 47.512 6.51575 46.9104 6.51575ZM41.7776 24.2702C39.0489 26.999 32.5712 26.6001 30.2414 24.2702C27.9115 21.9403 27.5126 15.4627 30.2414 12.734C33.6262 9.34911 40.5026 8.76289 45.8119 8.69965C45.7488 14.0111 45.1625 20.8876 41.7776 24.2702Z" fill="#156963"/>
<path d="M39.0397 15.9489C38.7825 15.4018 38.0458 15.2144 37.5031 15.4671C29.1446 19.3969 25.0383 26.2493 23.1726 33.2936C20.8644 18.3157 14.1885 13.7496 11.3573 11.8121C11.0042 11.5701 10.7296 11.3936 10.5771 11.2432C10.152 10.8182 9.4611 10.8182 9.03609 11.2432C8.61108 11.6682 8.61108 12.3592 9.03609 12.7842C9.25186 12.9978 9.62456 13.2659 10.128 13.6102C13.3189 15.7919 21.7951 21.5917 21.7951 44.7057C21.7951 45.3073 22.2833 45.7955 22.8849 45.7955C23.4864 45.7955 23.9747 45.3073 23.9747 44.708C23.9747 35.3687 26.4834 23.0564 38.4316 17.4419C38.4316 17.4398 38.6081 17.3569 38.6081 17.3569C39.1508 17.0997 39.2968 16.4937 39.0397 15.9489Z" fill="#156963"/>
</g>
<defs>
<clipPath id="clip0_0_43">
<rect width="48" height="48" fill="white"/>
</clipPath>
</defs>
</svg>
