<svg width="201" height="48" viewBox="0 0 201 48" fill="none" xmlns="http://www.w3.org/2000/svg">
<path d="M67.92 8.88V11.84H73.104V13.92H67.92V18H65.328V6.8H73.792V8.88H67.92ZM78.6084 9.264C79.9417 9.264 80.9657 9.584 81.6804 10.224C82.395 10.8533 82.7524 11.808 82.7524 13.088V18H80.4164V16.928C79.947 17.728 79.0724 18.128 77.7924 18.128C77.131 18.128 76.555 18.016 76.0644 17.792C75.5844 17.568 75.2164 17.2587 74.9604 16.864C74.7044 16.4693 74.5764 16.0213 74.5764 15.52C74.5764 14.72 74.875 14.0907 75.4724 13.632C76.0804 13.1733 77.0137 12.944 78.2724 12.944H80.2564C80.2564 12.4 80.091 11.984 79.7604 11.696C79.4297 11.3973 78.9337 11.248 78.2724 11.248C77.8137 11.248 77.3604 11.3227 76.9124 11.472C76.475 11.6107 76.1017 11.8027 75.7924 12.048L74.8964 10.304C75.3657 9.97333 75.9257 9.71733 76.5764 9.536C77.2377 9.35467 77.915 9.264 78.6084 9.264ZM78.4164 16.448C78.843 16.448 79.2217 16.352 79.5524 16.16C79.883 15.9573 80.1177 15.664 80.2564 15.28V14.4H78.5444C77.5204 14.4 77.0084 14.736 77.0084 15.408C77.0084 15.728 77.131 15.984 77.3764 16.176C77.6324 16.3573 77.979 16.448 78.4164 16.448ZM87.9074 18.128C87.1927 18.128 86.494 18.0427 85.8114 17.872C85.1287 17.6907 84.5847 17.4667 84.1794 17.2L85.0114 15.408C85.3954 15.6533 85.8594 15.856 86.4034 16.016C86.9474 16.1653 87.4807 16.24 88.0034 16.24C89.0594 16.24 89.5874 15.9787 89.5874 15.456C89.5874 15.2107 89.4434 15.0347 89.1554 14.928C88.8674 14.8213 88.4247 14.7307 87.8274 14.656C87.1234 14.5493 86.542 14.4267 86.0834 14.288C85.6247 14.1493 85.2247 13.904 84.8834 13.552C84.5527 13.2 84.3874 12.6987 84.3874 12.048C84.3874 11.504 84.542 11.024 84.8514 10.608C85.1714 10.1813 85.63 9.85067 86.2274 9.616C86.8354 9.38133 87.55 9.264 88.3714 9.264C88.9794 9.264 89.582 9.33333 90.1794 9.472C90.7874 9.6 91.2887 9.78133 91.6834 10.016L90.8514 11.792C90.094 11.3653 89.2674 11.152 88.3714 11.152C87.838 11.152 87.438 11.2267 87.1714 11.376C86.9047 11.5253 86.7714 11.7173 86.7714 11.952C86.7714 12.2187 86.9154 12.4053 87.2034 12.512C87.4914 12.6187 87.95 12.72 88.5794 12.816C89.2834 12.9333 89.8594 13.0613 90.3074 13.2C90.7554 13.328 91.1447 13.568 91.4754 13.92C91.806 14.272 91.9714 14.7627 91.9714 15.392C91.9714 15.9253 91.8114 16.4 91.4914 16.816C91.1714 17.232 90.702 17.5573 90.0834 17.792C89.4754 18.016 88.75 18.128 87.9074 18.128ZM99.0634 17.584C98.818 17.7653 98.514 17.904 98.1514 18C97.7994 18.0853 97.426 18.128 97.0314 18.128C96.0074 18.128 95.2127 17.8667 94.6474 17.344C94.0927 16.8213 93.8154 16.0533 93.8154 15.04V11.504H92.4874V9.584H93.8154V7.488H96.3114V9.584H98.4554V11.504H96.3114V15.008C96.3114 15.3707 96.402 15.6533 96.5834 15.856C96.7754 16.048 97.042 16.144 97.3834 16.144C97.778 16.144 98.114 16.0373 98.3914 15.824L99.0634 17.584ZM65.328 30.8H70.416C71.632 30.8 72.704 31.0347 73.632 31.504C74.5707 31.9627 75.296 32.6133 75.808 33.456C76.3307 34.2987 76.592 35.28 76.592 36.4C76.592 37.52 76.3307 38.5013 75.808 39.344C75.296 40.1867 74.5707 40.8427 73.632 41.312C72.704 41.7707 71.632 42 70.416 42H65.328V30.8ZM70.288 39.872C71.408 39.872 72.2987 39.5627 72.96 38.944C73.632 38.3147 73.968 37.4667 73.968 36.4C73.968 35.3333 73.632 34.4907 72.96 33.872C72.2987 33.2427 71.408 32.928 70.288 32.928H67.92V39.872H70.288ZM86.8028 37.728C86.8028 37.76 86.7868 37.984 86.7548 38.4H80.2428C80.3601 38.9333 80.6374 39.3547 81.0748 39.664C81.5121 39.9733 82.0561 40.128 82.7068 40.128C83.1548 40.128 83.5494 40.064 83.8908 39.936C84.2428 39.7973 84.5681 39.584 84.8668 39.296L86.1948 40.736C85.3841 41.664 84.2001 42.128 82.6428 42.128C81.6721 42.128 80.8134 41.9413 80.0668 41.568C79.3201 41.184 78.7441 40.656 78.3388 39.984C77.9334 39.312 77.7308 38.5493 77.7308 37.696C77.7308 36.8533 77.9281 36.096 78.3228 35.424C78.7281 34.7413 79.2774 34.2133 79.9708 33.84C80.6748 33.456 81.4588 33.264 82.3228 33.264C83.1654 33.264 83.9281 33.4453 84.6108 33.808C85.2934 34.1707 85.8268 34.6933 86.2108 35.376C86.6054 36.048 86.8028 36.832 86.8028 37.728ZM82.3388 35.152C81.7734 35.152 81.2988 35.312 80.9148 35.632C80.5308 35.952 80.2961 36.3893 80.2108 36.944H84.4508C84.3654 36.4 84.1308 35.968 83.7468 35.648C83.3628 35.3173 82.8934 35.152 82.3388 35.152ZM88.4645 30.128H90.9605V42H88.4645V30.128ZM93.277 33.392H95.773V42H93.277V33.392ZM94.525 32.192C94.0663 32.192 93.693 32.0587 93.405 31.792C93.117 31.5253 92.973 31.1947 92.973 30.8C92.973 30.4053 93.117 30.0747 93.405 29.808C93.693 29.5413 94.0663 29.408 94.525 29.408C94.9837 29.408 95.357 29.536 95.645 29.792C95.933 30.048 96.077 30.368 96.077 30.752C96.077 31.168 95.933 31.5147 95.645 31.792C95.357 32.0587 94.9837 32.192 94.525 32.192ZM106.634 33.392L103.002 42H100.426L96.8095 33.392H99.3855L101.77 39.248L104.234 33.392H106.634ZM115.85 37.728C115.85 37.76 115.834 37.984 115.802 38.4H109.29C109.407 38.9333 109.684 39.3547 110.122 39.664C110.559 39.9733 111.103 40.128 111.754 40.128C112.202 40.128 112.596 40.064 112.938 39.936C113.29 39.7973 113.615 39.584 113.914 39.296L115.242 40.736C114.431 41.664 113.247 42.128 111.69 42.128C110.719 42.128 109.86 41.9413 109.114 41.568C108.367 41.184 107.791 40.656 107.386 39.984C106.98 39.312 106.778 38.5493 106.778 37.696C106.778 36.8533 106.975 36.096 107.37 35.424C107.775 34.7413 108.324 34.2133 109.018 33.84C109.722 33.456 110.506 33.264 111.37 33.264C112.212 33.264 112.975 33.4453 113.658 33.808C114.34 34.1707 114.874 34.6933 115.258 35.376C115.652 36.048 115.85 36.832 115.85 37.728ZM111.386 35.152C110.82 35.152 110.346 35.312 109.962 35.632C109.578 35.952 109.343 36.3893 109.258 36.944H113.498C113.412 36.4 113.178 35.968 112.794 35.648C112.41 35.3173 111.94 35.152 111.386 35.152ZM119.895 34.528C120.194 34.112 120.594 33.7973 121.095 33.584C121.607 33.3707 122.194 33.264 122.855 33.264V35.568C122.578 35.5467 122.391 35.536 122.295 35.536C121.581 35.536 121.021 35.7387 120.615 36.144C120.21 36.5387 120.007 37.136 120.007 37.936V42H117.511V33.392H119.895V34.528ZM133.18 33.392L129.292 42.528C128.898 43.52 128.407 44.2187 127.82 44.624C127.244 45.0293 126.546 45.232 125.724 45.232C125.276 45.232 124.834 45.1627 124.396 45.024C123.959 44.8853 123.602 44.6933 123.324 44.448L124.236 42.672C124.428 42.8427 124.647 42.976 124.892 43.072C125.148 43.168 125.399 43.216 125.644 43.216C125.986 43.216 126.263 43.1307 126.476 42.96C126.69 42.8 126.882 42.528 127.052 42.144L127.084 42.064L123.356 33.392H125.932L128.348 39.232L130.78 33.392H133.18Z" fill="#156963"/>
<g clip-path="url(#clip0_0_18)">
<path d="M13.0001 38H9.00006C8.44806 38 8.00006 37.552 8.00006 37C8.00006 36.448 8.44806 36 9.00006 36H13.0001C13.5521 36 14.0001 36.448 14.0001 37C14.0001 37.552 13.5521 38 13.0001 38Z" fill="#156963"/>
<path d="M45.5 38H43C42.448 38 42 37.552 42 37C42 36.448 42.448 36 43 36H44.67L46.018 28.816C46 25.14 42.86 22 39 22H32.434L29.252 36H35C35.552 36 36 36.448 36 37C36 37.552 35.552 38 35 38H28C27.696 38 27.408 37.862 27.218 37.624C27.028 37.388 26.956 37.076 27.024 36.78L30.66 20.78C30.764 20.322 31.168 20 31.636 20H39C43.962 20 48 24.038 48 29L46.482 37.184C46.394 37.658 45.982 38 45.5 38Z" fill="#156963"/>
<path d="M38.9999 42C36.2439 42 33.9999 39.758 33.9999 37C33.9999 34.242 36.2439 32 38.9999 32C41.7559 32 43.9999 34.242 43.9999 37C43.9999 39.758 41.7559 42 38.9999 42ZM38.9999 34C37.3459 34 35.9999 35.346 35.9999 37C35.9999 38.654 37.3459 40 38.9999 40C40.6539 40 41.9999 38.654 41.9999 37C41.9999 35.346 40.6539 34 38.9999 34Z" fill="#156963"/>
<path d="M17 42C14.244 42 12 39.758 12 37C12 34.242 14.244 32 17 32C19.756 32 22 34.242 22 37C22 39.758 19.756 42 17 42ZM17 34C15.346 34 14 35.346 14 37C14 38.654 15.346 40 17 40C18.654 40 20 38.654 20 37C20 35.346 18.654 34 17 34Z" fill="#156963"/>
<path d="M12.9999 20H4.99991C4.44791 20 3.99991 19.552 3.99991 19C3.99991 18.448 4.44791 18 4.99991 18H12.9999C13.5519 18 13.9999 18.448 13.9999 19C13.9999 19.552 13.5519 20 12.9999 20Z" fill="#156963"/>
<path d="M13.0001 26H3.00006C2.44806 26 2.00006 25.552 2.00006 25C2.00006 24.448 2.44806 24 3.00006 24H13.0001C13.5521 24 14.0001 24.448 14.0001 25C14.0001 25.552 13.5521 26 13.0001 26Z" fill="#156963"/>
<path d="M13 32H1C0.448 32 0 31.552 0 31C0 30.448 0.448 30 1 30H13C13.552 30 14 30.448 14 31C14 31.552 13.552 32 13 32Z" fill="#156963"/>
<path d="M28.0001 38H21.0001C20.4481 38 20.0001 37.552 20.0001 37C20.0001 36.448 20.4481 36 21.0001 36H27.2021L31.7461 16H9.00006C8.44806 16 8.00006 15.552 8.00006 15C8.00006 14.448 8.44806 14 9.00006 14H33.0001C33.3041 14 33.5921 14.138 33.7821 14.376C33.9721 14.612 34.0441 14.924 33.9761 15.22L28.9761 37.22C28.8721 37.678 28.4661 38 28.0001 38Z" fill="#156963"/>
</g>
<defs>
<clipPath id="clip0_0_18">
<rect width="48" height="48" fill="white"/>
</clipPath>
</defs>
</svg>
